<?xml version="1.0" encoding="UTF-8" standalone="no"?>
<svg width="153px" height="21px" viewBox="0 0 153 21" version="1.1" xmlns="http://www.w3.org/2000/svg" xmlns:xlink="http://www.w3.org/1999/xlink">
    <!-- Generator: Sketch 45.1 (43504) - http://www.bohemiancoding.com/sketch -->
    <title>Overhaul Copy</title>
    <desc>Created with Sketch.</desc>
    <defs></defs>
    <g id="Page-1" stroke="none" stroke-width="1" fill="none" fill-rule="evenodd">
        <path d="M3.265,0.75 L13.675,0.75 C15.085,0.75 16.045,1.71 16.045,3.12 L16.045,18.63 C16.045,20.04 15.085,21 13.675,21 L3.265,21 C1.855,21 0.895,20.04 0.895,18.63 L0.895,3.12 C0.895,1.71 1.855,0.75 3.265,0.75 Z M10.825,16.35 L10.825,5.46 C10.825,5.28 10.675,5.13 10.495,5.13 L6.385,5.13 C6.265,5.13 6.115,5.28 6.115,5.46 L6.115,16.35 C6.115,16.5 6.265,16.62 6.385,16.62 L10.495,16.62 C10.675,16.62 10.825,16.5 10.825,16.35 Z M30.835,0.75 L27.445,13.62 L24.625,0.75 L19.045,0.75 L24.925,21 L29.965,21 L35.995,0.75 L30.835,0.75 Z M39.775,21 L53.005,21 L53.005,16.62 L44.965,16.62 L44.965,12.96 L51.925,12.96 L51.925,8.64 L44.965,8.64 L44.965,5.1 L53.005,5.1 L53.005,0.75 L39.775,0.75 L39.775,21 Z M58.045,0.75 L70.765,0.75 C71.995,0.75 73.045,1.74 73.045,3.03 L73.045,12.3 C73.045,13.53 71.995,14.58 70.765,14.58 L70.615,14.58 L73.105,21 L68.005,21 L65.485,14.58 L63.265,14.58 L63.265,21 L58.045,21 L58.045,0.75 Z M67.855,10.23 L67.855,5.4 C67.855,5.25 67.705,5.1 67.585,5.1 L63.265,5.1 L63.265,10.5 L67.585,10.5 C67.705,10.5 67.855,10.35 67.855,10.23 Z M93.805,0.75 L88.585,0.75 L88.585,8.49 L83.635,8.49 L83.635,0.75 L78.415,0.75 L78.415,21 L83.635,21 L83.635,12.96 L88.585,12.96 L88.585,21 L93.805,21 L93.805,0.75 Z M114.415,3.12 L114.415,21 L109.195,21 L109.195,15.96 L104.605,15.96 L104.605,21 L99.385,21 L99.385,3.12 C99.385,1.71 100.345,0.75 101.755,0.75 L112.045,0.75 C113.455,0.75 114.415,1.71 114.415,3.12 Z M104.605,11.58 L109.195,11.58 L109.195,5.49 C109.195,5.13 108.895,4.89 108.475,4.89 L105.235,4.89 C104.875,4.89 104.605,5.16 104.605,5.49 L104.605,11.58 Z M119.995,0.75 L119.995,18.69 C119.995,20.01 121.075,21 122.305,21 L132.565,21 C133.825,21 134.845,20.01 134.845,18.69 L134.845,0.75 L129.625,0.75 L129.625,16.35 C129.625,16.5 129.475,16.62 129.295,16.62 L125.485,16.62 C125.365,16.62 125.215,16.5 125.215,16.35 L125.215,0.75 L119.995,0.75 Z M140.605,21 L152.245,21 L152.245,16.62 L145.795,16.62 L145.795,0.75 L140.605,0.75 L140.605,21 Z" id="Overhaul-Copy" fill="#4BC2AD"></path>
    </g>
</svg>