<?xml version="1.0" encoding="UTF-8" standalone="no"?>
<svg width="100px" height="101px" viewBox="0 0 100 101" version="1.1" xmlns="http://www.w3.org/2000/svg" xmlns:xlink="http://www.w3.org/1999/xlink">
    <!-- Generator: Sketch 45.1 (43504) - http://www.bohemiancoding.com/sketch -->
    <title>Group 3 Copy</title>
    <desc>Created with Sketch.</desc>
    <defs></defs>
    <g id="Page-1" stroke="none" stroke-width="1" fill="none" fill-rule="evenodd">
        <g id="Group-3-Copy">
            <g id="csv-file-format-extension" transform="translate(19.557196, 35.208259)" fill-rule="nonzero" fill="#EE964B">
                <path d="M16.1411938,6.99137885 L15.6744041,6.99137885 L15.6744041,4.72660716 C15.6744041,4.71238349 15.6721347,4.69826676 15.6702908,4.6838292 C15.6695462,4.59399551 15.6410721,4.50558774 15.5798335,4.43571709 L11.8312965,0.131078773 C11.8301973,0.129866731 11.8290271,0.129510248 11.8282824,0.128405151 C11.8059784,0.103201808 11.7799156,0.0823475566 11.7523635,0.064380817 C11.7441724,0.058784035 11.7359812,0.0541854052 11.7274,0.0494441823 C11.7035712,0.0364325554 11.678253,0.0254885294 11.6521902,0.0176102567 C11.6451338,0.0157565455 11.638822,0.0128333854 11.6317655,0.0109083776 C11.6033979,0.00420649856 11.5740019,0 11.5442868,0 L2.33171459,0 C1.91102232,0 1.56929849,0.343970378 1.56929849,0.766509594 L1.56929849,6.99116496 L1.10254424,6.99116496 C0.500724513,6.99116496 0.0127654433,7.48154288 0.0127654433,8.086637 L0.0127654433,13.7835907 C0.0127654433,14.3883996 0.500724513,14.8792766 1.10254424,14.8792766 L1.56929849,14.8792766 L1.56929849,18.7791642 C1.56929849,19.2017391 1.91102232,19.5456382 2.33171459,19.5456382 L14.9119526,19.5456382 C15.3322548,19.5456382 15.6744041,19.2017391 15.6744041,18.7791642 L15.6744041,14.8793123 L16.1411938,14.8793123 C16.7428008,14.8793123 17.2308308,14.3886492 17.2308308,13.7838046 L17.2308308,8.08685089 C17.2308663,7.48157853 16.7428008,6.99137885 16.1411938,6.99137885 Z M2.33171459,0.766509594 L11.1630255,0.766509594 L11.1630255,4.6880357 C11.1630255,4.89978656 11.3338697,5.0712905 11.5442513,5.0712905 L14.9119526,5.0712905 L14.9119526,6.9913432 L2.33171459,6.9913432 L2.33171459,0.766509594 Z M8.07123519,11.1643324 C7.125174,10.8331241 6.50878039,10.306884 6.50878039,9.47499542 C6.50878039,8.4980896 7.3194215,7.75075879 8.66234613,7.75075879 C9.30441247,7.75075879 9.77744306,7.88661443 10.1150536,8.0397595 L9.8281857,9.08425448 C9.6001807,8.97349524 9.19480695,8.81218671 8.63709892,8.81218671 C8.07978094,8.81218671 7.80950814,9.06703636 7.80950814,9.36420053 C7.80950814,9.72948858 8.13031082,9.89069016 8.86549398,10.1709927 C9.8704535,10.5445512 10.3434841,11.07072 10.3434841,11.8776191 C10.3434841,12.836879 9.60872645,13.652405 8.04598798,13.652405 C7.39573048,13.652405 6.75352231,13.4821487 6.43268416,13.3041212 L6.69437575,12.234102 C7.04088662,12.4128425 7.57288647,12.5907988 8.12211966,12.5907988 C8.71326607,12.5907988 9.02591305,12.3445404 9.02591305,11.9706611 C9.02573575,11.6138217 8.75528565,11.4102343 8.07123519,11.1643324 Z M1.36427129,10.7904531 C1.36427129,8.83760394 2.74981832,7.75075879 4.47244397,7.75075879 C5.1398639,7.75075879 5.64661654,7.88661443 5.87483429,8.00560843 L5.61271719,9.03284964 C5.3510256,8.92291031 4.98749415,8.82113443 4.53151961,8.82113443 C3.50950403,8.82113443 2.71577714,9.44052352 2.71577714,10.7140231 C2.71577714,11.8604009 3.3913173,12.5819937 4.5403845,12.5819937 C4.92856035,12.5819937 5.35939406,12.497222 5.61271719,12.3952679 L5.80714198,13.4057544 C5.57055577,13.5248197 5.03859138,13.652405 4.34592424,13.652405 C2.37791841,13.6524406 1.36427129,12.4207208 1.36427129,10.7904531 Z M14.9119526,18.571406 L2.33171459,18.571406 L2.33171459,14.8793123 L14.9119526,14.8793123 L14.9119526,18.571406 Z M14.0603557,13.5671343 L12.5569056,13.5671343 L10.732511,7.84429991 L12.1433407,7.84429991 L12.8357241,10.2646051 C13.0300071,10.9435625 13.2073049,11.5973522 13.3427604,12.3107102 L13.3679013,12.3107102 C13.5114416,11.6227694 13.688633,10.9435268 13.8829869,10.2897015 L14.609447,7.84429991 L15.9781508,7.84429991 L14.0603557,13.5671343 Z" id="Shape"></path>
            </g>
            <path d="M70,15.1388955 C70.0001953,14.2305344 69.2396484,13.4676285 68.3333984,13.4676285 L55,13.4676285 C54.09375,13.4676285 53.3332031,14.2301429 53.3333984,15.1388955 L53.3333984,95.3242793 C53.3332031,96.2328363 54.0941406,96.9951548 55,96.9951548 L68.3333984,96.9951548 C69.2392578,96.9951548 70.0001953,96.2328363 70,95.3242793 L70,15.1388955 Z M64.0236328,21.8204399 L66.6667969,19.1713142 L66.6667969,24.4697613 L64.0236328,21.8204399 Z M65.9765625,28.5025715 L61.6667969,32.8223769 L57.3570312,28.5025715 L61.6667969,24.1829619 L65.9765625,28.5025715 Z M61.6667969,19.4581136 L59.0236328,16.8087922 L64.3097656,16.8087922 L61.6667969,19.4581136 Z M59.3097656,21.8204399 L56.6666016,24.4697613 L56.6666016,19.1713142 L59.3097656,21.8204399 Z M59.3097656,35.1848989 L56.6666016,37.8342203 L56.6666016,32.5357733 L59.3097656,35.1848989 Z M61.6667969,37.5474209 L65.9765625,41.8672263 L61.6667969,46.1868359 L57.3570312,41.8670305 L61.6667969,37.5474209 Z M59.3097656,48.5491622 L56.6666016,51.1984836 L56.6666016,45.9000365 L59.3097656,48.5491622 Z M61.6667969,50.91188 L65.9765625,55.2316853 L61.6667969,59.5512949 L57.3570312,55.2314896 L61.6667969,50.91188 Z M59.3097656,61.9136212 L56.6666016,64.5629426 L56.6666016,59.2644956 L59.3097656,61.9136212 Z M61.6667969,64.2761432 L65.9765625,68.5959486 L61.6667969,72.9155582 L57.3570312,68.5957528 L61.6667969,64.2761432 Z M59.3097656,75.2780802 L56.6666016,77.9274016 L56.6666016,72.6289546 L59.3097656,75.2780802 Z M61.6667969,77.6406022 L65.9765625,81.9604076 L61.6667969,86.2800172 L57.3570312,81.9602118 L61.6667969,77.6406022 Z M59.3097656,88.6423435 L56.6666016,91.2916649 L56.6666016,85.9932178 L59.3097656,88.6423435 Z M61.6667969,91.0050613 L64.3099609,93.6543827 L59.0238281,93.6543827 L61.6667969,91.0050613 Z M64.0236328,88.6423435 L66.6667969,85.9932178 L66.6667969,91.2916649 L64.0236328,88.6423435 Z M64.0236328,75.2780802 L66.6667969,72.6289546 L66.6667969,77.9274016 L64.0236328,75.2780802 Z M64.0236328,61.9136212 L66.6667969,59.2644956 L66.6667969,64.5629426 L64.0236328,61.9136212 Z M64.0236328,48.5491622 L66.6667969,45.9000365 L66.6667969,51.1984836 L64.0236328,48.5491622 Z M64.0236328,35.1848989 L66.6667969,32.5357733 L66.6667969,37.8342203 L64.0236328,35.1848989 Z" id="Shape" fill="#4C4E55" fill-rule="nonzero" transform="translate(61.666699, 55.231392) scale(-1, 1) translate(-61.666699, -55.231392) "></path>
            <path d="M95,13.4676285 L86.9876953,13.4676285 L53.9523437,0.222979168 C53.4699219,0.0289735881 52.9023437,0.0777196923 52.4597656,0.351206872 L31.1947266,13.4676285 L20,13.4676285 C19.0794922,13.4676285 18.3333984,14.2156561 18.3333984,15.1381125 C18.3333984,16.0607646 19.0796875,16.8085964 20,16.8085964 L95,16.8085964 C95.9205078,16.8085964 96.6666016,16.0605689 96.6666016,15.1381125 C96.6666016,14.2156561 95.9205078,13.4676285 95,13.4676285 Z M53.4929687,3.63716414 L78.0125,13.46802 L37.5552734,13.46802 L53.4929687,3.63716414 Z" id="Shape" fill="#606268" fill-rule="nonzero" transform="translate(57.500000, 8.457057) scale(-1, 1) translate(-57.500000, -8.457057) "></path>
            <path d="M88.3333984,16.8087922 L78.3333984,16.8087922 C77.4128906,16.8087922 76.6667968,17.369666 76.6667968,18.0617041 L76.6667968,25.5791756 C76.6667968,26.2712137 77.4130859,26.8320875 78.3333984,26.8320875 L88.3333984,26.8320875 C89.2539062,26.8320875 90,26.2712137 90,25.5791756 L90,18.0617041 C90.0001953,17.369666 89.2539062,16.8087922 88.3333984,16.8087922 Z" id="Shape" fill="#AFB0B4" fill-rule="nonzero" transform="translate(83.333398, 21.820440) scale(-1, 1) translate(-83.333398, -21.820440) "></path>
            <path d="M88.3333984,25.5791756 L88.3333984,18.0617041 C88.3333984,17.369666 89.0796875,16.8087922 90,16.8087922 L86.6666016,16.8087922 C85.7460937,16.8087922 85,17.369666 85,18.0617041 L85,25.5791756 C85,26.2712137 85.7462891,26.8320875 86.6666016,26.8320875 L90,26.8320875 C89.0794922,26.8320875 88.3333984,26.2712137 88.3333984,25.5791756 Z" id="Shape" fill="#9B9DA1" fill-rule="nonzero" transform="translate(87.500000, 21.820440) scale(-1, 1) translate(-87.500000, -21.820440) "></path>
            <path d="M37.6948729,32.3191902 L29.7478026,22.7604511 L29.7478026,15.0125612 C29.7478026,14.0899091 29.0015135,13.3420773 28.081201,13.3420773 C27.1608885,13.3420773 26.4145994,14.0901048 26.4145994,15.0125612 L26.4145994,22.7604511 L18.4675291,32.3191902 C17.8782713,33.0280642 17.9737791,34.0814891 18.6808104,34.6721196 C19.3876463,35.2627501 20.4388182,35.166824 21.0282713,34.4583415 L28.081201,25.975149 L35.1341307,34.4583415 C35.4640135,34.8547706 35.9378416,35.0593477 36.4153807,35.0593477 C36.7915526,35.0593477 37.1698729,34.9322946 37.4813963,34.6721196 C38.1886229,34.0814891 38.2839354,33.0278685 37.6948729,32.3191902 Z" id="Shape" fill="#74757B" fill-rule="nonzero" transform="translate(28.081152, 24.200712) scale(-1, 1) translate(-28.081152, -24.200712) "></path>
            <path d="M68.3333984,5.1150129 L55,5.1150129 C54.0794922,5.1150129 53.3333984,5.86304047 53.3333984,6.78549686 L53.3333984,15.1383082 C53.3333984,16.0609604 54.0796875,16.8087922 55,16.8087922 L68.3333984,16.8087922 C69.2539063,16.8087922 70,16.0607646 70,15.1383082 L70,6.78549686 C70,5.86304047 69.2539063,5.1150129 68.3333984,5.1150129 Z" id="Shape" fill="#4BC2AD" fill-rule="nonzero" transform="translate(61.666699, 10.961903) scale(-1, 1) translate(-61.666699, -10.961903) "></path>
            <rect id="Rectangle-path" fill="#EBEBEC" fill-rule="nonzero" transform="translate(61.666699, 10.961805) scale(-1, 1) translate(-61.666699, -10.961805) " x="53.3333984" y="8.45598083" width="16.6666016" height="5.01164767"></rect>
            <path d="M68.3333984,15.1383082 L68.3333984,6.78549686 C68.3333984,5.8628447 69.0796875,5.1150129 70,5.1150129 L66.6666016,5.1150129 C65.7460938,5.1150129 65,5.86304047 65,6.78549686 L65,15.1383082 C65,16.0609604 65.7462891,16.8087922 66.6666016,16.8087922 L70,16.8087922 C69.0794922,16.8087922 68.3333984,16.0609604 68.3333984,15.1383082 Z" id="Shape" fill="#3DB39E" fill-rule="nonzero" transform="translate(67.500000, 10.961903) scale(-1, 1) translate(-67.500000, -10.961903) "></path>
            <rect id="Rectangle-path" fill="#D7D8D9" fill-rule="nonzero" transform="translate(68.333301, 10.961805) scale(-1, 1) translate(-68.333301, -10.961805) " x="66.6666016" y="8.45598083" width="3.33339844" height="5.01164767"></rect>
            <path d="M95.2085937,75.2780802 L74.7917969,75.2780802 C73.9863281,75.2780802 73.3333984,75.9109965 73.3333984,76.6915215 L73.3333984,92.2405499 C73.3333984,93.0212706 73.9863281,93.6539911 74.7917969,93.6539911 L95.2083984,93.6539911 C96.0138672,93.6539911 96.6667969,93.0210749 96.6667969,92.2405499 L96.6667969,76.6915215 C96.6667969,75.9109965 96.0138672,75.2780802 95.2085937,75.2780802 Z" id="Shape" fill="#FDDD85" fill-rule="nonzero" transform="translate(85.000098, 84.466036) scale(-1, 1) translate(-85.000098, -84.466036) "></path>
            <path d="M76.4585937,91.9835072 C75.653125,91.9835072 75.0001953,91.3505909 75.0001953,90.5700659 L75.0001953,75.2780802 L74.7917969,75.2780802 C73.9863281,75.2780802 73.3333984,75.9109965 73.3333984,76.6915215 L73.3333984,92.2403541 C73.3333984,93.0210749 73.9863281,93.6537954 74.7917969,93.6537954 L95.2083984,93.6537954 C96.0138672,93.6537954 96.6667969,93.0208791 96.6667969,92.2403541 L96.6667969,91.9833114 L76.4585937,91.9833114 L76.4585937,91.9835072 Z" id="Shape" fill="#FDD042" fill-rule="nonzero" transform="translate(85.000098, 84.465938) scale(-1, 1) translate(-85.000098, -84.465938) "></path>
            <g id="Group" transform="translate(84.796875, 84.502762) scale(-1, 1) translate(-84.796875, -84.502762) translate(77.796875, 78.502762)" fill-rule="nonzero" fill="#F2C127">
                <path d="M6.796875,11.810261 C5.87636719,11.810261 5.13027344,11.0622334 5.13027344,10.139777 L5.13027344,1.78696562 C5.13027344,0.864313455 5.8765625,0.116481655 6.796875,0.116481655 C7.7171875,0.116481655 8.46347656,0.864509222 8.46347656,1.78696562 L8.46347656,10.139777 C8.46347656,11.0624292 7.71738281,11.810261 6.796875,11.810261 Z" id="Shape"></path>
                <path d="M11.796875,11.810261 C10.8763672,11.810261 10.1302734,11.0622334 10.1302734,10.139777 L10.1302734,1.78696562 C10.1302734,0.864313455 10.8765625,0.116481655 11.796875,0.116481655 C12.7173828,0.116481655 13.4634766,0.864509222 13.4634766,1.78696562 L13.4634766,10.139777 C13.4634766,11.0624292 12.7173828,11.810261 11.796875,11.810261 Z" id="Shape"></path>
                <path d="M1.796875,11.810261 C0.876367187,11.810261 0.130273438,11.0622334 0.130273438,10.139777 L0.130273438,1.78696562 C0.130273438,0.864313455 0.8765625,0.116481655 1.796875,0.116481655 C2.7171875,0.116481655 3.46347656,0.864509222 3.46347656,1.78696562 L3.46347656,10.139777 C3.46347656,11.0624292 2.71738281,11.810261 1.796875,11.810261 Z" id="Shape"></path>
            </g>
            <path d="M98.3335937,96.9951548 L1.66679684,96.9951548 C0.746289024,96.9951548 0.000195274172,96.2471273 0.000195274172,95.3246709 C0.000195274172,94.4020187 0.746484337,93.6541869 1.66679684,93.6541869 L98.3333984,93.6541869 C99.2539062,93.6541869 100,94.4022145 100,95.3246709 C100.000195,96.2471273 99.2539062,96.9951548 98.3335937,96.9951548 Z" id="Shape" fill="#88898E" fill-rule="nonzero" transform="translate(50.000098, 95.324671) scale(-1, 1) translate(-50.000098, -95.324671) "></path>
            <g id="Group-20" transform="translate(10.332103, 63.374867)">
                <path d="M35.4402183,2.0047607 L35.4402183,24.376874 C35.4402183,25.3442571 34.6629665,26.1285609 33.7042816,26.1285609 L1.73593674,26.1285609 C0.777251814,26.1284537 0,25.3442571 0,24.3767668 L0,2.0047607 C0,0.897602852 0.889425918,0 1.98673509,0 L33.4535894,0 C34.5507924,7.61625491e-16 35.4402183,0.897495663 35.4402183,2.0047607" id="Shape" fill="#9D9DA0"></path>
                <polyline id="Shape" fill="#FFFFFF" points="2.44886327 23.5960752 2.44886327 2.33379944 33.0671885 2.33379944 33.0671885 23.5960752 2.44886327 23.5960752"></polyline>
                <polyline id="Shape" fill="#DCDCDE" points="21.9555262 28.7611213 13.468748 28.7611213 13.468748 26.0836408 21.9555262 26.0836408 21.9555262 28.7611213"></polyline>
                <path d="M28.3213951,30.4436917 L7.07449388,30.4436917 C7.07449388,29.9600538 7.26931141,29.5220785 7.58278279,29.2049055 C7.8972102,28.88859 8.33114127,28.6920049 8.81043063,28.6920049 L26.5854583,28.6920049 C27.5441433,28.6920049 28.3213951,29.4764159 28.3213951,30.4436917" id="Shape" fill="#DCDCDE"></path>
                <path d="M33.5120928,0 L11.4280286,0 L12.1628964,2.43298179 L33.0882531,2.43298179 L33.0882531,11.9899761 L35.4988279,11.9899761 L35.4988279,2.0047607 C35.4988279,0.897495663 34.6094019,0 33.5120928,0" id="Shape" fill="#9D9DA0"></path>
                <path d="M13.659479,7.46902244 L14.5077957,10.2777026 C14.8568526,9.98561186 15.0796074,9.54484963 15.0796074,9.05252936 C15.0796074,8.22845834 14.455639,7.54877125 13.659479,7.46902244 M33.0336251,2.33379944 L12.1082684,2.33379944 L13.3029863,6.28940465 C13.3688461,6.28458113 13.4353433,6.28211578 13.5024778,6.28211578 C15.016297,6.28211578 16.2478752,7.52486805 16.2478752,9.05242217 C16.2478752,10.0804744 15.6901915,10.9793635 14.8639697,11.4575348 L16.3959535,16.5298377 L18.5082471,5.79322557 L19.6543138,6.02282496 L17.1172245,18.9180143 L18.1550474,22.3540732 C18.2426834,21.9709788 18.5832423,21.6854266 18.9895548,21.6854266 L20.1252113,21.6854266 L21.6313824,21.6854266 L21.7124324,19.318795 C20.3076005,19.198743 19.2005186,18.0065841 19.2005186,16.55835 C19.2005186,15.045588 20.4083022,13.8121612 21.9019387,13.7883652 L21.9669487,11.8905794 L29.662772,11.8905794 L33.0333064,11.8905794 L33.0333064,2.33379944" id="Shape" fill="#FFFFFF"></path>
                <g id="shopify_logo_whitebg" transform="translate(8.571021, 10.296174)">
                    <g id="Layer_1">
                        <g id="Group">
                            <g id="Shape">
                                <path d="M3.88935045,0.992956449 C3.88572909,0.967402422 3.86400087,0.952800122 3.84589403,0.952800122 C3.82778718,0.952800122 3.44030068,0.92359552 3.44030068,0.92359552 C3.44030068,0.92359552 3.17231937,0.653452957 3.13972704,0.624248356 C3.11075609,0.595043754 3.05281418,0.602344904 3.03108597,0.609646055 C3.0274646,0.609646055 2.97314406,0.627898931 2.87898847,0.657103532 C2.78845424,0.390611544 2.62911399,0.149673582 2.35026857,0.149673582 L2.32491899,0.149673582 C2.24887024,0.0474574773 2.1474719,0 2.06418041,0 C1.41233396,0 1.10089622,0.821379415 1.00311925,1.23754499 C0.749623412,1.31785764 0.568554955,1.37261627 0.54682674,1.37991742 C0.405593344,1.42372432 0.401971974,1.42737489 0.383865129,1.56244618 C0.369379652,1.66466228 0,4.54861667 0,4.54861667 L2.87898847,5.09255237 L4.43979856,4.75304888 C4.43979856,4.74939831 3.89297182,1.01851047 3.88935045,0.992956449 Z M2.71964822,0.700910434 C2.64722084,0.722813885 2.56392935,0.748367912 2.47701649,0.777572513 L2.47701649,0.722813885 C2.47701649,0.562188577 2.45528828,0.430767871 2.41907458,0.324901191 C2.56392935,0.346804642 2.65808495,0.511080525 2.71964822,0.700910434 Z M2.23800613,0.361406943 C2.27784119,0.463623048 2.30319077,0.60599548 2.30319077,0.803126539 L2.30319077,0.832331141 C2.14385053,0.883439193 1.97364618,0.934547246 1.79982046,0.989305873 C1.89759743,0.61329663 2.08228725,0.430767871 2.23800613,0.361406943 Z M2.04607356,0.175227609 C2.07504452,0.175227609 2.10401547,0.186179334 2.12936505,0.20443221 C1.91932564,0.30299774 1.69842213,0.551236852 1.60426653,1.05136565 C1.4666545,1.09517255 1.33266384,1.13532888 1.20591592,1.17548521 C1.314557,0.795825389 1.57891694,0.175227609 2.04607356,0.175227609 Z" fill="#95BF47"></path>
                                <path d="M3.84589403,0.949149546 C3.82778718,0.949149546 3.44030068,0.919944945 3.44030068,0.919944945 C3.44030068,0.919944945 3.17231937,0.649802382 3.13972704,0.62059778 C3.12886294,0.609646055 3.11437746,0.602344904 3.09989198,0.602344904 L2.88260983,5.09255237 L4.44341993,4.75304888 C4.44341993,4.75304888 3.89659319,1.01851047 3.89297182,0.992956449 C3.88572909,0.967402422 3.86400087,0.952800122 3.84589403,0.949149546 Z" fill="#5E8E3E"></path>
                                <path d="M2.35026857,1.81798644 L2.15833601,2.39477732 C2.15833601,2.39477732 1.98813166,2.30351294 1.78171362,2.30351294 C1.47751861,2.30351294 1.46303313,2.49699342 1.46303313,2.5444509 C1.46303313,2.80729231 2.14385053,2.90950842 2.14385053,3.52645562 C2.14385053,4.01198212 1.83965552,4.32593159 1.42681944,4.32593159 C0.930691869,4.32593159 0.680817398,4.0156327 0.680817398,4.0156327 L0.814808056,3.5739131 C0.814808056,3.5739131 1.07554663,3.80024876 1.29282878,3.80024876 C1.43768355,3.80024876 1.49562545,3.68708093 1.49562545,3.6031177 C1.49562545,3.25996363 0.937934607,3.24536133 0.937934607,2.67952218 C0.937934607,2.20494741 1.27472194,1.74497494 1.9591607,1.74497494 C2.21989928,1.74132436 2.35026857,1.81798644 2.35026857,1.81798644 Z" fill="#FFFFFF"></path>
                            </g>
                            <path d="M6.26134724,2.90220727 C6.10562837,2.81824404 6.02595825,2.74523253 6.02595825,2.646667 C6.02595825,2.52254745 6.13822069,2.44223479 6.31204641,2.44223479 C6.51484308,2.44223479 6.69591154,2.52619802 6.69591154,2.52619802 L6.83714493,2.088129 C6.83714493,2.088129 6.70677564,1.9859129 6.32291052,1.9859129 C5.78694788,1.9859129 5.41394686,2.29621179 5.41394686,2.73063023 C5.41394686,2.97886935 5.58777258,3.16504868 5.81954021,3.30011996 C6.0078514,3.40598664 6.07303605,3.48264872 6.07303605,3.59581655 C6.07303605,3.71263496 5.97888045,3.80754991 5.80505473,3.80754991 C5.54793752,3.80754991 5.30168442,3.67247863 5.30168442,3.67247863 L5.14958692,4.11054765 C5.14958692,4.11054765 5.3741118,4.26387181 5.75435556,4.26387181 C6.30480367,4.26387181 6.70315428,3.99007867 6.70315428,3.49725102 C6.69953291,3.22710846 6.5003576,3.04092912 6.26134724,2.90220727 Z" id="s" fill="#000000"></path>
                            <path d="M8.45589694,1.97861175 C8.18429425,1.97861175 7.97063347,2.11003245 7.80767186,2.30716351 L7.80042912,2.30351294 L8.03581812,1.06231738 L7.42380673,1.06231738 L6.82628083,4.22371548 L7.43829221,4.22371548 L7.64108888,3.14314523 C7.720759,2.73428081 7.93079841,2.48239112 8.12635235,2.48239112 C8.26396437,2.48239112 8.31828491,2.57730608 8.31828491,2.71237736 C8.31828491,2.79634059 8.31104217,2.90220727 8.29293533,2.9861705 L8.0611677,4.22371548 L8.67317909,4.22371548 L8.91218945,2.94601417 C8.93753903,2.81094289 8.95564588,2.65031758 8.95564588,2.54080032 C8.95926725,2.18669453 8.77819879,1.97861175 8.45589694,1.97861175 Z" id="h" fill="#000000"></path>
                            <path d="M10.3462516,1.97861175 C9.60749232,1.97861175 9.11860749,2.65031758 9.11860749,3.39868549 C9.11860749,3.87691084 9.41193839,4.26387181 9.9623865,4.26387181 C10.6866603,4.26387181 11.1755452,3.61041885 11.1755452,2.84379806 C11.1791665,2.39842789 10.9220493,1.97861175 10.3462516,1.97861175 Z M10.045678,3.78929704 C9.83563858,3.78929704 9.74872572,3.61041885 9.74872572,3.38408319 C9.74872572,3.0299774 9.92979418,2.45318652 10.2629601,2.45318652 C10.4802423,2.45318652 10.5526697,2.64301643 10.5526697,2.82554519 C10.5526697,3.20520501 10.3679798,3.78929704 10.045678,3.78929704 Z" id="o" fill="#000000"></path>
                            <path d="M12.7472194,1.97861175 C12.3343833,1.97861175 12.0989943,2.34731984 12.0989943,2.34731984 L12.0917516,2.34731984 L12.1279652,2.0151175 L11.5847599,2.0151175 C11.5594103,2.23780258 11.5087111,2.58095665 11.4616333,2.83649691 L11.0343118,5.09985352 L11.6463232,5.09985352 L11.8165275,4.18355915 L11.831013,4.18355915 C11.831013,4.18355915 11.9577609,4.26387181 12.1895285,4.26387181 C12.910181,4.26387181 13.380959,3.51915447 13.380959,2.76713599 C13.380959,2.35097041 13.1962691,1.97861175 12.7472194,1.97861175 Z M12.1605576,3.79659819 C12.0012173,3.79659819 11.9070617,3.70533381 11.9070617,3.70533381 L12.0084601,3.12854293 C12.0808874,2.74158196 12.2800627,2.4860417 12.4937235,2.4860417 C12.6820347,2.4860417 12.7399766,2.66126931 12.7399766,2.82554519 C12.7399766,3.22710846 12.5045876,3.79659819 12.1605576,3.79659819 Z" id="p" fill="#000000"></path>
                            <path d="M14.2573303,1.09152198 C14.0617764,1.09152198 13.9060575,1.24849671 13.9060575,1.44927835 C13.9060575,1.6318071 14.0219413,1.75957724 14.195767,1.75957724 L14.2030098,1.75957724 C14.3949423,1.75957724 14.5579039,1.62815653 14.5615253,1.40182087 C14.5615253,1.21929211 14.4420201,1.09152198 14.2573303,1.09152198 Z" id="dot" fill="#000000"></path>
                            <polygon id="i" fill="#000000" points="13.3990658 4.22006491 14.0110772 4.22006491 14.4275346 2.02606922 13.8119019 2.02606922"></polygon>
                            <path d="M15.9883447,2.02241865 L15.5610232,2.02241865 L15.5827514,1.92020254 C15.6189651,1.70846918 15.7420916,1.52228985 15.9485097,1.52228985 C16.0571508,1.52228985 16.1440636,1.55514503 16.1440636,1.55514503 L16.2635688,1.06961853 C16.2635688,1.06961853 16.1585491,1.0148599 15.9304028,1.0148599 C15.7131207,1.0148599 15.4958385,1.07691968 15.3292556,1.21929211 C15.1192162,1.39817029 15.0214392,1.65736113 14.9743614,1.92020254 L14.9562545,2.02241865 L14.6701664,2.02241865 L14.5796322,2.48969227 L14.8657203,2.48969227 L14.5397971,4.22006491 L15.1518085,4.22006491 L15.4777317,2.48969227 L15.9014319,2.48969227 L15.9883447,2.02241865 Z" id="f" fill="#000000"></path>
                            <path d="M17.4658634,2.02606922 C17.4658634,2.02606922 17.0819982,3.0007728 16.9117939,3.53375677 L16.9045511,3.53375677 C16.893687,3.36217974 16.7524536,2.02606922 16.7524536,2.02606922 L16.1078499,2.02606922 L16.4772296,4.03753615 C16.4844723,4.08134305 16.480851,4.11054765 16.4627441,4.13975225 C16.3903167,4.27847411 16.2708115,4.41354539 16.1295781,4.51211092 C16.0136943,4.59607415 15.883325,4.65083278 15.7819267,4.68733853 L15.9521311,5.21302135 C16.0752576,5.18746733 16.3359962,5.08160065 16.5532783,4.87716844 C16.8321238,4.61432703 17.0928623,4.20546261 17.3572223,3.65057518 L18.1068457,2.02606922 L17.4658634,2.02606922 Z" id="y" fill="#000000"></path>
                        </g>
                    </g>
                </g>
                <path d="M21.8996618,14.9637729 C21.0694035,15.0082564 20.4071939,15.7040219 20.4071939,16.5527464 C20.4071939,17.3641691 21.0123604,18.0357098 21.7910994,18.1321802 L21.8996618,14.9637729" id="Shape" fill="#FFFFFF"></path>
                <polyline id="Shape" fill="#DCDCDE" points="18.0663171 28.6920049 14.4210837 28.6920049 14.9505115 30.4436917 18.0663171 30.4436917 18.0663171 28.6920049"></polyline>
                <path d="M26.5694541,34.7324269 L26.5694541,34.7324269 L26.5694541,36.3846422 C26.5694541,36.8617416 26.1857677,37.2479445 25.7130643,37.2479445 L26.5694541,37.2479445 L26.5694541,34.7324269" id="Shape" fill="#FFFFFF"></path>
            </g>
            <polygon id="Triangle" fill="#74757B" points="28.0442804 17.4188231 36.900369 35.2082595 19.1881919 35.2082595"></polygon>
            <g id="Group-11" transform="translate(72.062731, 56.703828)" fill-rule="nonzero">
                <path d="M23.3054392,0.341608287 L2.88883764,0.341608287 C2.08336889,0.341608287 1.4304392,0.974524572 1.4304392,1.75504954 L1.4304392,17.304078 C1.4304392,18.0847987 2.08336889,18.7175192 2.88883764,18.7175192 L23.3054392,18.7175192 C24.110908,18.7175192 24.7638376,18.0846029 24.7638376,17.304078 L24.7638376,1.75504954 C24.7638376,0.974524572 24.110908,0.341608287 23.3054392,0.341608287 Z" id="Shape" fill="#F07B52" transform="translate(13.097138, 9.529564) scale(-1, 1) translate(-13.097138, -9.529564) "></path>
                <g id="Group" transform="translate(12.802900, 9.712206) scale(-1, 1) translate(-12.802900, -9.712206) translate(0.802900, 0.212206)" fill="#E5563C">
                    <path d="M3.1640625,16.8348293 C2.35859375,16.8348293 1.70566406,16.201913 1.70566406,15.421388 L1.70566406,0.129402309 L1.49726563,0.129402309 C0.691796875,0.129402309 0.0388671875,0.762318594 0.0388671875,1.54284356 L0.0388671875,17.0916762 C0.0388671875,17.872397 0.691796875,18.5051175 1.49726563,18.5051175 L21.9140625,18.5051175 C22.7195313,18.5051175 23.3724609,17.8722012 23.3724609,17.0916762 L23.3724609,16.8346335 L3.1640625,16.8346335 L3.1640625,16.8348293 Z" id="Shape"></path>
                    <path d="M11.7056641,15.1643453 C10.7851562,15.1643453 10.0390625,14.4163177 10.0390625,13.4938613 L10.0390625,5.14104997 C10.0390625,4.21839781 10.7853516,3.47056601 11.7056641,3.47056601 C12.6259766,3.47056601 13.3722656,4.21859358 13.3722656,5.14104997 L13.3722656,13.4938613 C13.3724609,14.4165135 12.6261719,15.1643453 11.7056641,15.1643453 Z" id="Shape"></path>
                    <path d="M16.7056641,15.1643453 C15.7851562,15.1643453 15.0390625,14.4163177 15.0390625,13.4938613 L15.0390625,5.14104997 C15.0390625,4.21839781 15.7853516,3.47056601 16.7056641,3.47056601 C17.6259766,3.47056601 18.3722656,4.21859358 18.3722656,5.14104997 L18.3722656,13.4938613 C18.3724609,14.4165135 17.6261719,15.1643453 16.7056641,15.1643453 Z" id="Shape"></path>
                    <path d="M6.70566406,15.1643453 C5.78515625,15.1643453 5.0390625,14.4163177 5.0390625,13.4938613 L5.0390625,5.14104997 C5.0390625,4.21839781 5.78535156,3.47056601 6.70566406,3.47056601 C7.62617188,3.47056601 8.37226563,4.21859358 8.37226563,5.14104997 L8.37226563,13.4938613 C8.37246094,14.4165135 7.62617187,15.1643453 6.70566406,15.1643453 Z" id="Shape"></path>
                </g>
                <g id="Group" transform="translate(1.186664, 0.212206)" fill="#E5563C">
                    <path d="M3.1640625,16.8348293 C2.35859375,16.8348293 1.70566406,16.201913 1.70566406,15.421388 L1.70566406,0.129402309 L1.49726563,0.129402309 C0.691796875,0.129402309 0.0388671875,0.762318594 0.0388671875,1.54284356 L0.0388671875,17.0916762 C0.0388671875,17.872397 0.691796875,18.5051175 1.49726563,18.5051175 L21.9140625,18.5051175 C22.7195313,18.5051175 23.3724609,17.8722012 23.3724609,17.0916762 L23.3724609,16.8346335 L3.1640625,16.8346335 L3.1640625,16.8348293 Z" id="Shape"></path>
                    <path d="M11.7056641,15.1643453 C10.7851562,15.1643453 10.0390625,14.4163177 10.0390625,13.4938613 L10.0390625,5.14104997 C10.0390625,4.21839781 10.7853516,3.47056601 11.7056641,3.47056601 C12.6259766,3.47056601 13.3722656,4.21859358 13.3722656,5.14104997 L13.3722656,13.4938613 C13.3724609,14.4165135 12.6261719,15.1643453 11.7056641,15.1643453 Z" id="Shape"></path>
                    <path d="M16.7056641,15.1643453 C15.7851562,15.1643453 15.0390625,14.4163177 15.0390625,13.4938613 L15.0390625,5.14104997 C15.0390625,4.21839781 15.7853516,3.47056601 16.7056641,3.47056601 C17.6259766,3.47056601 18.3722656,4.21859358 18.3722656,5.14104997 L18.3722656,13.4938613 C18.3724609,14.4165135 17.6261719,15.1643453 16.7056641,15.1643453 Z" id="Shape"></path>
                    <path d="M6.70566406,15.1643453 C5.78515625,15.1643453 5.0390625,14.4163177 5.0390625,13.4938613 L5.0390625,5.14104997 C5.0390625,4.21839781 5.78535156,3.47056601 6.70566406,3.47056601 C7.62617188,3.47056601 8.37226563,4.21859358 8.37226563,5.14104997 L8.37226563,13.4938613 C8.37246094,14.4165135 7.62617187,15.1643453 6.70566406,15.1643453 Z" id="Shape"></path>
                </g>
            </g>
        </g>
    </g>
</svg>